<svg xmlns="http://www.w3.org/2000/svg" width="173" height="29" viewBox="0 0 173 29">
  <g fill="#1D1D1D" fill-rule="evenodd">
    <path d="M150.060808 6.51552381C149.024192 4.72235714 147.780668 3.68802381 145.569728 3.68802381 143.254296 3.68802381 141.250264 5.34378571 141.250264 7.72247619 141.250264 9.96307143 143.564312 10.9974048 145.326836 11.7900714L147.055452 12.5489048C150.441408 14.0313571 153.309056 15.7209524 153.309056 19.8575952 153.309056 24.4092143 149.6463 27.8912857 145.121312 27.8912857 140.939556 27.8912857 137.829708 25.201881 137 21.1674286L139.834432 20.3747619C140.21434 23.0303333 142.25228 25.2025714 145.05142 25.2025714 147.85056 25.2025714 150.406116 23.0648571 150.406116 20.1344762 150.406116 17.1012143 148.02356 16.0655 145.604328 14.9628095L144.014804 14.2723333C140.973464 12.8927619 138.348708 11.3419524 138.348708 7.61821429 138.348708 3.58445238 141.769264 1 145.638928 1 148.540484 1 150.993624 2.48245238 152.37624 5.0337619L150.060808 6.51552381zM169.68878 6.41314286C168.652164 4.61997619 167.40864 3.58564286 165.1977 3.58564286 162.882268 3.58564286 160.878236 5.24140476 160.878236 7.62009524 160.878236 9.86069048 163.193668 10.8950238 164.954808 11.6876905L166.683424 12.4465238C170.06938 13.9289762 172.937028 15.6185714 172.937028 19.7552143 172.937028 24.3068333 169.274272 27.7889048 164.749284 27.7889048 160.567528 27.7889048 157.45768 25.0995 156.627972 21.0650476L159.462404 20.272381C159.842312 22.9279524 161.881636 25.1001905 164.679392 25.1001905 167.478532 25.1001905 170.035472 22.9624762 170.035472 20.0320952 170.035472 16.9988333 167.651532 15.963119 165.2323 14.8604286L163.64416 14.1699524C160.602128 12.790381 157.977372 11.2395714 157.977372 7.51583333 157.977372 3.48207143 161.397928.897619048 165.267592.897619048 168.169148.897619048 170.622288 2.38007143 172.004904 4.93138095L169.68878 6.41314286z"/>
    <polygon points="120.789 1.345 134.299 1.345 134.299 4.034 123.692 4.034 123.692 11.757 133.988 11.757 133.988 14.446 123.692 14.446 123.692 24.651 134.299 24.651 134.299 27.339 120.789 27.339"/>
    <polygon points="0 0 20.318 21.238 20.318 1.104 23.219 1.104 23.219 28.271 2.903 7.068 2.903 27.098 0 27.098"/>
    <polygon points="63.816 20.823 72.246 0 80.676 20.823 87.519 1.346 90.662 1.346 80.676 28.684 72.246 7.758 63.816 28.684 53.829 1.345 56.974 1.345"/>
    <path d="M53.804384,14.3777857 C53.804384,21.8584048 47.653196,27.7889048 40.225268,27.7889048 C32.795956,27.7889048 26.646152,21.8584048 26.646152,14.3777857 C26.646152,6.931 32.795956,0.897619048 40.225268,0.897619048 C47.653888,0.896928571 53.804384,6.931 53.804384,14.3777857 Z M29.5484,14.341881 C29.5484,20.2033333 34.31628,25.0995 40.22596,25.0995 C46.134256,25.0995 50.902136,20.2033333 50.902136,14.341881 C50.902136,8.44659524 46.202764,3.58564286 40.22596,3.58564286 C34.24708,3.58564286 29.5484,8.44659524 29.5484,14.341881 Z"/>
    <polygon points="93.523 .241 113.84 21.479 113.84 1.345 116.741 1.345 116.741 28.512 96.425 7.309 96.425 27.339 93.523 27.339"/>
  </g>
</svg>
